<svg xmlns="http://www.w3.org/2000/svg" viewBox="0 0 590 240" version="1.1" xml:space="preserve" stroke-linejoin="round"><style>.s0{fill:#243150;}</style><path d="M286 66.6c-3.2 0-7.2-0.7-12.1-2.1l0-6.6c5.3 2.5 9.7 3.7 13.1 3.7 2.6 0 4.8-0.7 6.4-2.1 1.6-1.4 2.4-3.2 2.4-5.5 0-1.8-0.5-3.4-1.6-4.7 -1.1-1.3-3-2.7-5.8-4.3l-3.3-1.9c-4-2.3-6.8-4.5-8.5-6.5 -1.6-2-2.5-4.4-2.5-7.1 0-3.6 1.3-6.6 4-9 2.6-2.3 6-3.5 10.1-3.5 3.6 0 7.5 0.6 11.5 1.8l0 6.1c-5-2-8.7-2.9-11.1-2.9 -2.3 0-4.2 0.6-5.7 1.8 -1.5 1.2-2.3 2.8-2.3 4.7 0 1.6 0.6 3 1.7 4.2 1.1 1.2 3.1 2.7 6.1 4.3l3.4 1.9c4.1 2.3 6.9 4.5 8.5 6.6 1.6 2.1 2.4 4.5 2.4 7.4 0 4.1-1.5 7.4-4.5 9.9 -3 2.5-7 3.7-12 3.7ZM324.2 66.3c-3.2 0-5.7-0.9-7.5-2.7 -1.8-1.8-2.7-4.4-2.7-7.6l0-20.3 -4.3 0 0-4.7 4.3 0 0-6.3 6.3-0.6 0 6.9 9.1 0 0 4.7 -9.1 0 0 19.2c0 4.5 2 6.8 5.9 6.8 0.8 0 1.8-0.1 3-0.4l0 4.3c-1.9 0.5-3.6 0.8-5 0.8ZM339.9 65.5l0-34.6 6.3 0 0 34.6 -6.3 0Zm0-40.9l0-6.3 6.3 0 0 6.3 -6.3 0ZM373.9 66.3c-4.7 0-8.6-1.7-11.6-5.2 -3.1-3.5-4.6-7.8-4.6-13.1 0-5.6 1.5-10 4.6-13.2 3.1-3.1 7.3-4.7 12.8-4.7 2.7 0 5.7 0.4 9.1 1.1l0 5.3c-3.5-1-6.4-1.6-8.7-1.6 -3.2 0-5.8 1.2-7.7 3.6 -1.9 2.4-2.9 5.6-2.9 9.6 0 3.9 1 7 3 9.4 2 2.4 4.6 3.6 7.8 3.6 2.9 0 5.8-0.7 8.9-2.2l0 5.4c-4.1 1.2-7.6 1.8-10.5 1.8ZM395.5 65.5l0-50.3 6.3 0 0 22.2c3.3-4.8 7.4-7.3 12.2-7.3 3 0 5.4 1 7.2 2.9 1.8 1.9 2.7 4.5 2.7 7.7l0 24.9 -6.3 0 0-22.8c0-2.6-0.4-4.4-1.1-5.5 -0.8-1.1-2-1.6-3.7-1.6 -3.8 0-7.5 2.5-10.9 7.6l0 22.4 -6.3 0ZM448.1 66.3c-3.2 0-5.7-0.9-7.5-2.7 -1.8-1.8-2.7-4.4-2.7-7.6l0-20.3 -4.3 0 0-4.7 4.3 0 0-6.3 6.3-0.6 0 6.9 9.1 0 0 4.7 -9.1 0 0 19.2c0 4.5 2 6.8 5.9 6.8 0.8 0 1.8-0.1 3-0.4l0 4.3c-1.9 0.5-3.6 0.8-5 0.8ZM463.8 65.5l0-34.6 6.3 0 0 34.6 -6.3 0Zm0-40.9l0-6.3 6.3 0 0 6.3 -6.3 0ZM484.3 65.5l0-34.6 6.3 0 0 6.5c3.3-4.8 7.4-7.3 12.2-7.3 3 0 5.4 1 7.2 2.9 1.8 1.9 2.7 4.5 2.7 7.7l0 24.9 -6.3 0 0-22.8c0-2.6-0.4-4.4-1.1-5.5 -0.8-1.1-2-1.6-3.7-1.6 -3.8 0-7.5 2.5-10.9 7.6l0 22.4 -6.3 0ZM526.6 77l0.7-5.5c3.6 1.7 7.2 2.6 10.7 2.6 7.1 0 10.6-3.8 10.6-11.3l0-5.5c-2.3 4.8-6.1 7.3-11.4 7.3 -4.1 0-7.4-1.5-9.9-4.5 -2.4-3-3.7-7.1-3.7-12.2 0-5.3 1.4-9.6 4.2-12.9 2.8-3.3 6.4-5 10.8-5 3.9 0 7.2 1.6 10 4.7l0-4 6.3 0 0 25.2c0 5.4-0.3 9.4-0.8 12 -0.6 2.6-1.6 4.7-3.2 6.4 -2.7 2.9-7 4.4-12.8 4.4 -4 0-7.9-0.6-11.6-1.8Zm22.1-23.5l0-14.4c-2.8-2.9-5.8-4.3-9-4.3 -2.9 0-5.2 1.2-6.8 3.5 -1.6 2.3-2.5 5.5-2.5 9.5 0 7.6 2.7 11.4 8 11.4 3.6 0 7.1-1.9 10.3-5.7ZM264.8 152.6l0-5.9c2.6 0.8 4.8 1.2 6.8 1.2 2.6 0 4.3-0.7 5.3-2.2 1-1.5 1.5-4 1.5-7.6l0-41.4 6.7 0 0 41.2c0 10.3-4.9 15.4-14.6 15.4 -1.5 0-3.4-0.2-5.7-0.7ZM313.4 144.6c-5 0-8.9-1.6-11.9-4.9 -3-3.3-4.4-7.7-4.4-13.2 0-5.6 1.5-10 4.4-13.2 3-3.2 7-4.9 12.1-4.9 5.1 0 9.1 1.6 12.1 4.9 3 3.2 4.4 7.6 4.4 13.2 0 5.7-1.5 10.1-4.5 13.3 -3 3.2-7.1 4.8-12.3 4.8Zm0.1-4.7c6.7 0 10-4.5 10-13.5 0-8.9-3.3-13.3-9.9-13.3 -6.5 0-9.8 4.5-9.8 13.4 0 8.9 3.2 13.4 9.7 13.4ZM356.1 144.6c-5 0-8.9-1.6-11.9-4.9 -3-3.3-4.4-7.7-4.4-13.2 0-5.6 1.5-10 4.4-13.2 3-3.2 7-4.9 12.1-4.9 5.1 0 9.1 1.6 12.1 4.9 3 3.2 4.4 7.6 4.4 13.2 0 5.7-1.5 10.1-4.5 13.3 -3 3.2-7.1 4.8-12.3 4.8Zm0.1-4.7c6.7 0 10-4.5 10-13.5 0-8.9-3.3-13.3-9.9-13.3 -6.5 0-9.8 4.5-9.8 13.4 0 8.9 3.2 13.4 9.7 13.4ZM385.2 143.8l0-34.6 6.3 0 0 6.5c3.1-4.8 7-7.3 11.8-7.3 4.6 0 7.8 2.4 9.5 7.3 3-4.9 6.8-7.3 11.6-7.3 3.1 0 5.4 0.9 7.1 2.7 1.7 1.8 2.5 4.3 2.5 7.5l0 25.2 -6.3 0 0-24.2c0-4-1.6-5.9-4.7-5.9 -3.3 0-6.7 2.3-10.2 6.9l0 23.2 -6.3 0 0-24.2c0-4-1.6-6-4.8-6 -3.2 0-6.6 2.3-10.2 7l0 23.2 -6.3 0Z" fill="#243150"/><rect x="448.8" y="93.5" width="6.3" height="50.3" fill="#243150"/><path d="M488.1 139.4c-3.8 3.5-7.4 5.2-10.9 5.2 -2.9 0-5.2-0.9-7.1-2.7 -1.9-1.8-2.8-4.1-2.8-6.8 0-3.8 1.6-6.7 4.8-8.7 3.2-2 7.7-3 13.7-3l1.5 0 0-4.2c0-4-2.1-6-6.2-6 -3.3 0-6.9 1-10.7 3.1l0-5.2c4.2-1.7 8.2-2.6 11.9-2.6 3.9 0 6.7 0.9 8.6 2.6 1.8 1.7 2.8 4.5 2.8 8.1l0 15.7c0 3.6 1.1 5.4 3.3 5.4 0.3 0 0.7 0 1.2-0.1l0.4 3.5c-1.4 0.7-3 1-4.7 1 -2.9 0-4.8-1.7-5.6-5.2Zm-0.9-3.4l0-9 -2.1-0.1c-3.4 0-6.2 0.7-8.4 2 -2.1 1.3-3.2 3-3.2 5.1 0 1.5 0.5 2.8 1.6 3.8 1.1 1 2.4 1.6 3.9 1.6 2.6 0 5.3-1.2 8.2-3.5ZM276.8 222.2l0-47.2 6.6 0 23.8 36.4 0-36.4 5.7 0 0 47.2 -6.5 0 -23.8-36.4 0 36.4 -5.7 0ZM350.5 221c-4.2 1.3-7.8 1.9-10.8 1.9 -5.1 0-9.3-1.7-12.5-5.1 -3.2-3.4-4.8-7.8-4.8-13.2 0-5.2 1.4-9.6 4.3-12.9 2.8-3.4 6.5-5 10.9-5 4.2 0 7.4 1.5 9.7 4.5 2.3 3 3.4 7.2 3.4 12.7l0 1.9 -21.8 0c0.9 8.2 4.9 12.3 12.1 12.3 2.6 0 5.8-0.7 9.6-2.1l0 5Zm-21.4-19.9l15.3 0c0-6.4-2.4-9.7-7.2-9.7 -4.8 0-7.5 3.2-8.1 9.7ZM383.6 222.2l0-6.5c-2.5 4.9-6.4 7.3-11.5 7.3 -4.2 0-7.4-1.5-9.8-4.6 -2.4-3-3.6-7.2-3.6-12.5 0-5.8 1.4-10.4 4.1-13.9 2.7-3.5 6.3-5.3 10.7-5.3 4.1 0 7.5 1.6 10.2 4.7l0-19.7 6.3 0 0 50.3 -6.3 0Zm0-26.4c-3.3-2.9-6.3-4.3-9.2-4.3 -6 0-9 4.6-9 13.8 0 8.1 2.7 12.1 8 12.1 3.5 0 6.9-1.9 10.2-5.7l0-15.9ZM427.8 221c-4.2 1.3-7.8 1.9-10.8 1.9 -5.1 0-9.3-1.7-12.5-5.1 -3.2-3.4-4.8-7.8-4.8-13.2 0-5.2 1.4-9.6 4.3-12.9 2.8-3.4 6.5-5 10.9-5 4.2 0 7.4 1.5 9.7 4.5 2.3 3 3.4 7.2 3.4 12.7l0 1.9 -21.8 0c0.9 8.2 4.9 12.3 12.1 12.3 2.6 0 5.8-0.7 9.6-2.1l0 5Zm-21.4-19.9l15.3 0c0-6.4-2.4-9.7-7.2-9.7 -4.8 0-7.5 3.2-8.1 9.7ZM438.8 222.2l0-34.6 6.3 0 0 6.5c2.5-4.8 6.1-7.3 10.8-7.3 0.6 0 1.3 0.1 2 0.2l0 5.9c-1.1-0.4-2-0.5-2.9-0.5 -4 0-7.3 2.4-10 7.1l0 22.8 -6.3 0Z" fill="#243150"/><rect x="465.4" y="171.8" width="6.3" height="50.3" fill="#243150"/><path d="M502.1 217.8c-3.8 3.5-7.4 5.2-10.9 5.2 -2.9 0-5.2-0.9-7.1-2.7 -1.9-1.8-2.8-4.1-2.8-6.8 0-3.8 1.6-6.7 4.8-8.7 3.2-2 7.7-3 13.7-3l1.5 0 0-4.2c0-4-2.1-6-6.2-6 -3.3 0-6.9 1-10.7 3.1l0-5.2c4.2-1.7 8.2-2.6 11.9-2.6 3.9 0 6.7 0.9 8.6 2.6 1.8 1.7 2.8 4.5 2.8 8.1l0 15.7c0 3.6 1.1 5.4 3.3 5.4 0.3 0 0.7 0 1.2-0.1l0.4 3.5c-1.4 0.7-3 1-4.7 1 -2.9 0-4.8-1.7-5.6-5.2Zm-0.9-3.4l0-9 -2.1-0.1c-3.4 0-6.2 0.7-8.4 2 -2.1 1.3-3.2 3-3.2 5.1 0 1.5 0.5 2.8 1.6 3.8 1.1 1 2.4 1.6 3.9 1.6 2.6 0 5.3-1.2 8.2-3.5ZM520.2 222.2l0-34.6 6.3 0 0 6.5c3.3-4.8 7.4-7.3 12.2-7.3 3 0 5.4 1 7.2 2.9 1.8 1.9 2.7 4.5 2.7 7.7l0 24.9 -6.3 0 0-22.8c0-2.6-0.4-4.4-1.1-5.5 -0.8-1.1-2-1.6-3.7-1.6 -3.8 0-7.5 2.5-10.9 7.6l0 22.4 -6.3 0ZM582.9 222.2l0-6.5c-2.5 4.9-6.4 7.3-11.5 7.3 -4.2 0-7.4-1.5-9.8-4.6 -2.4-3-3.6-7.2-3.6-12.5 0-5.8 1.4-10.4 4.1-13.9 2.7-3.5 6.3-5.3 10.7-5.3 4.1 0 7.5 1.6 10.2 4.7l0-19.7 6.3 0 0 50.3 -6.3 0Zm0-26.4c-3.3-2.9-6.3-4.3-9.2-4.3 -6 0-9 4.6-9 13.8 0 8.1 2.7 12.1 8 12.1 3.5 0 6.9-1.9 10.2-5.7l0-15.9Z" fill="#243150"/><path d="M11.8 122.2l0 117.8 90.3-104.7c-3.4-3.5-5.7-8.1-6.3-13.2l-84 0Z" fill="#74bee9"/><path d="M95.7 119.6c0-6 2.4-11.5 6.3-15.5l-42.5-36.7 -47.7 54.7 84 0c-0.1-0.8-0.1-1.7-0.1-2.5" fill="#488ecc"/><path d="M117.8 97.3l0-81.2 -117.8 0 102 88c4-4.2 9.7-6.8 15.9-6.8" fill="#89c765"/><path d="M118 97.3c6.3 0 12 2.6 16 6.8l36.4-42.1 -52.6-45.8 0 81.2c0.1 0 0.1 0 0.2 0" fill="#71bf44"/><path d="M223.9 117.8l0-117.8 -89.8 104.1c3.5 3.6 5.8 8.4 6.2 13.7l83.6 0Z" fill="#fec34d"/><path d="M140.4 119.6c0 6.2-2.5 11.8-6.6 15.8l42.7 36.8 47.4-54.4 -83.6 0c0 0.6 0.1 1.2 0.1 1.8" fill="#faa63f"/><path d="M176.4 172.3l-42.7-36.8c-0.1 0.1-0.2 0.2-0.3 0.3 -4 3.9-9.5 6.3-15.5 6.3 -0.1 0-0.1 0-0.2 0l0 81.4 117.8 0 -59.2-51.1Z" fill="#f36f42"/><path d="M102.1 135.3l-36.9 42.7 52.6 45.8 0-0.5 0-81.4c-6.1 0-11.7-2.6-15.7-6.6" fill="#ef4023"/></svg>