<?xml version="1.0" encoding="utf-8"?>
<!-- Generator: Adobe Illustrator 16.0.0, SVG Export Plug-In . SVG Version: 6.00 Build 0)  -->
<!DOCTYPE svg PUBLIC "-//W3C//DTD SVG 1.1//EN" "http://www.w3.org/Graphics/SVG/1.1/DTD/svg11.dtd">
<svg version="1.1" id="Layer_1" xmlns="http://www.w3.org/2000/svg" xmlns:xlink="http://www.w3.org/1999/xlink" x="0px" y="0px"
	 width="841.89px" height="595.28px" viewBox="0 0 841.89 595.28" enable-background="new 0 0 841.89 595.28" xml:space="preserve">
<g>
	<g>
		<path fill="#062C47" d="M407.04,347.971v4.747h8.591v2.663h-8.591v4.847h9.897v2.663h-12.861v-17.583h12.561v2.663H407.04z"/>
		<path fill="#062C47" d="M420.552,362.891v-17.583h2.964v17.583H420.552z"/>
		<path fill="#062C47" d="M440.469,362.891l-9.369-12.607v12.607h-2.965v-17.583h2.915l9.419,12.634v-12.634h2.913v17.583H440.469z"
			/>
		<path fill="#062C47" d="M455.234,345.308c5.275,0,9.093,3.693,9.093,8.794c0,5.072-3.843,8.789-9.169,8.789h-7.132v-17.583
			H455.234z M450.989,360.228h4.321c3.415,0,6.028-2.534,6.028-6.103c0-3.591-2.689-6.154-6.154-6.154h-4.195V360.228z"/>
		<path fill="#062C47" d="M479.772,362.891v-7.284h-9.318v7.284h-2.963v-17.583h2.963v7.639h9.318v-7.639h2.966v17.583H479.772z"/>
		<path fill="#062C47" d="M504.536,354.102c0,5.022-4.07,8.915-9.319,8.915s-9.318-3.893-9.318-8.915
			c0-5.051,4.069-8.867,9.318-8.867S504.536,349.077,504.536,354.102z M488.913,354.102c0,3.489,2.887,6.252,6.329,6.252
			c3.441,0,6.254-2.763,6.254-6.252c0-3.494-2.812-6.207-6.254-6.207C491.775,347.895,488.913,350.607,488.913,354.102z"/>
		<path fill="#062C47" d="M512.219,362.891l-7.008-17.583h3.189l5.427,14.293l5.476-14.293h3.089l-7.107,17.583H512.219z"/>
		<path fill="#062C47" d="M527.739,347.971v4.747h8.59v2.663h-8.59v4.847h9.895v2.663h-12.859v-17.583h12.56v2.663H527.739z"/>
		<path fill="#062C47" d="M553.582,362.891l-9.367-12.607v12.607h-2.967v-17.583h2.915l9.419,12.634v-12.634h2.915v17.583H553.582z"
			/>
	</g>
	<g>
		<path fill="#082C49" d="M399.111,324.902l8.771-10.359c1.291,1.612,2.557,2.809,3.799,3.592c1.244,0.783,2.534,1.174,3.869,1.174
			c1.705,0,3.006-0.507,3.904-1.519c0.896-1.013,1.346-2.51,1.346-4.491v-18.373h-16.439v-12.295h32.532v29.702
			c0,6.585-1.691,11.523-5.074,14.815c-3.386,3.293-8.347,4.94-14.888,4.94c-3.774,0-7.194-0.61-10.257-1.831
			C403.613,329.038,401.091,327.253,399.111,324.902z"/>
		<path fill="#082C49" d="M448.77,309.225v-26.594h16.301v26.109c0,3.546,0.634,6.126,1.899,7.736
			c1.266,1.613,3.097,2.418,5.493,2.418c2.395,0,4.223-0.805,5.49-2.418c1.268-1.61,1.899-4.19,1.899-7.736v-26.109h16.025v26.594
			c0,7.229-2.073,12.848-6.217,16.854c-4.143,4.006-9.924,6.01-17.339,6.01c-7.414,0-13.192-2.004-17.337-6.01
			C450.842,322.072,448.77,316.453,448.77,309.225z"/>
		<path fill="#082C49" d="M554.305,305.494v20.446c-2.855,1.979-6.17,3.5-9.947,4.56c-3.774,1.058-7.482,1.589-11.119,1.589
			c-5.159,0-9.786-1.071-13.885-3.212c-4.101-2.143-7.312-5.135-9.636-8.981c-2.326-3.846-3.488-8.208-3.488-13.089
			s1.162-9.245,3.488-13.089c2.323-3.846,5.57-6.838,9.738-8.981c4.169-2.141,8.876-3.211,14.126-3.211
			c4.744,0,8.992,0.794,12.744,2.384c3.753,1.588,6.873,3.902,9.36,6.941l-10.431,9.187c-3.039-3.546-6.654-5.318-10.844-5.318
			c-3.593,0-6.447,1.083-8.566,3.247c-2.117,2.163-3.178,5.11-3.178,8.841c0,3.638,1.048,6.562,3.145,8.771
			c2.096,2.212,4.892,3.316,8.392,3.316c2.073,0,4.052-0.393,5.939-1.174v-12.227H554.305z"/>
	</g>
	<g>
		<path fill="#72BF44" d="M332.043,263.941c0.135,0,0.267,0.016,0.404,0.019c-2.066-3.112-4.823-5.753-8.068-7.707
			c4.346-5.867,3.808-14.09-1.627-19.372c-6.041-5.861-15.833-5.859-21.873,0c-5.209,5.057-5.93,12.82-2.154,18.624
			c-8.024,4.2-13.482,12.429-13.482,21.894l0.003,3.049l0.003,15.669l0.012,66.9h16.131l-0.003-66.897l-0.006-15.663l-0.003-3.062
			c0-5.064,4.253-9.203,9.509-9.203c2.689,0.001,5.112,1.093,6.839,2.837c0.483-0.63,1.007-1.241,1.581-1.817
			C322.711,265.813,327.232,263.94,332.043,263.941z"/>
		<path fill="#FAA73F" d="M359.802,278.602l-0.003-1.217c0.003-5.083,4.123-9.201,9.21-9.204c5.104,0,9.23,4.139,9.23,9.204
			l-0.003,3.061v2.451h-28.2c-0.126,2.374-0.718,4.735-1.8,6.943c3.087,2.389,5.586,5.355,7.4,8.693
			c3.369-3.243,7.779-5.034,12.471-5.034c4.811,0,9.332,1.872,12.736,5.272c0.082,0.083,0.158,0.173,0.236,0.258h12.821v-16.133
			h-0.006v-2.46l0.006-3.049c0-9.464-5.3-17.694-13.087-21.893c3.664-5.803,2.967-13.567-2.09-18.624
			c-5.865-5.859-15.37-5.861-21.232,0c-5.273,5.282-5.797,13.505-1.577,19.372c-4.978,3.086-8.773,7.882-10.591,13.566
			c2.329,2.546,3.813,5.597,4.419,8.795L359.802,278.602z"/>
		<path fill="#EF4123" d="M344.235,290.706c4.22-5.868,3.696-14.091-1.58-19.374c-2.93-2.929-6.772-4.394-10.612-4.394
			c-0.679,0-1.354,0.062-2.027,0.154c-1.612,0.218-3.193,0.692-4.677,1.434c-1.411,0.704-2.736,1.631-3.913,2.806
			c-5.057,5.057-5.753,12.821-2.09,18.625c-7.787,4.2-13.087,12.429-13.087,21.894l0.006,3.049v2.372h-0.006v16.133h36.052
			c1.642-5.521,4.967-10.413,9.614-14.007c-0.343-0.693-0.624-1.406-0.866-2.126h-29.134v-2.363l-0.003-3.062
			c0-5.064,4.126-9.203,9.23-9.203c5.086,0.004,9.206,4.121,9.209,9.203l-0.006,1.219l9.813,0.002
			c-0.372-4.233,0.761-8.54,3.348-12.105C351.443,296.73,348.213,293.173,344.235,290.706z"/>
		<path fill="#4A8ECC" d="M393.901,341.408c0-9.465-5.3-17.693-13.087-21.894c3.664-5.803,2.967-13.567-2.09-18.624
			c-2.933-2.93-6.775-4.395-10.617-4.395c-3.843,0-7.683,1.465-10.615,4.395c-5.273,5.282-5.797,13.506-1.577,19.373
			c-7.07,4.384-11.776,12.213-11.776,21.145v1.218l15.663-0.003l-0.003-1.219c0.003-5.082,4.123-9.2,9.21-9.203
			c5.104,0,9.23,4.139,9.23,9.203l-0.003,3.062v2.42h-71.987v16.131h87.652v-16.131h-0.006v-2.429L393.901,341.408z"/>
	</g>
</g>
</svg>
