<?xml version="1.0" encoding="utf-8"?>
<!-- Generator: Adobe Illustrator 16.0.0, SVG Export Plug-In . SVG Version: 6.00 Build 0)  -->
<!DOCTYPE svg PUBLIC "-//W3C//DTD SVG 1.1//EN" "http://www.w3.org/Graphics/SVG/1.1/DTD/svg11.dtd">
<svg version="1.1" id="Layer_1" xmlns="http://www.w3.org/2000/svg" xmlns:xlink="http://www.w3.org/1999/xlink" x="0px" y="0px"
	 width="841.891px" height="595.28px" viewBox="0 0 841.891 595.28" enable-background="new 0 0 841.891 595.28"
	 xml:space="preserve">
<g>
	<g>
		<path fill="#062C47" d="M371.02,385.753v3.396h6.146v1.905h-6.146v3.468h7.08v1.905h-9.201v-12.579h8.986v1.905H371.02z"/>
		<path fill="#062C47" d="M380.694,396.427v-12.579h2.12v12.579H380.694z"/>
		<path fill="#062C47" d="M394.947,396.427l-6.703-9.021v9.021h-2.12v-12.579h2.084l6.739,9.038v-9.038h2.084v12.579H394.947z"/>
		<path fill="#062C47" d="M405.521,383.848c3.773,0,6.506,2.641,6.506,6.289c0,3.63-2.75,6.29-6.559,6.29h-5.104v-12.579H405.521z
			 M402.484,394.521h3.092c2.443,0,4.312-1.814,4.312-4.366c0-2.57-1.923-4.402-4.402-4.402h-3.002V394.521z"/>
		<path fill="#062C47" d="M423.087,396.427v-5.212h-6.667v5.212h-2.121v-12.579h2.121v5.462h6.667v-5.462h2.12v12.579H423.087z"/>
		<path fill="#062C47" d="M440.813,390.137c0,3.595-2.911,6.38-6.667,6.38s-6.667-2.785-6.667-6.38c0-3.611,2.911-6.344,6.667-6.344
			S440.813,386.543,440.813,390.137z M429.637,390.137c0,2.498,2.066,4.475,4.527,4.475c2.463,0,4.475-1.977,4.475-4.475
			s-2.012-4.438-4.475-4.438C431.686,385.698,429.637,387.639,429.637,390.137z"/>
		<path fill="#062C47" d="M446.321,396.427l-5.015-12.579h2.283l3.881,10.225l3.918-10.225h2.21l-5.085,12.579H446.321z"/>
		<path fill="#062C47" d="M457.434,385.753v3.396h6.146v1.905h-6.146v3.468h7.08v1.905h-9.201v-12.579h8.986v1.905H457.434z"/>
		<path fill="#062C47" d="M475.932,396.427l-6.703-9.021v9.021h-2.121v-12.579h2.086l6.738,9.038v-9.038h2.084v12.579H475.932z"/>
	</g>
	<g>
		<path fill="#72BF44" d="M415.895,230.443c0.135,0,0.268,0.016,0.402,0.019c-2.064-3.112-4.822-5.753-8.068-7.707
			c4.348-5.867,3.808-14.09-1.627-19.372c-6.039-5.861-15.832-5.859-21.873,0c-5.209,5.057-5.928,12.82-2.152,18.624
			c-8.025,4.2-13.484,12.429-13.484,21.894l0.005,3.049l0.001,15.669l0.012,66.901h16.131l-0.001-66.898l-0.007-15.663l-0.004-3.062
			c0-5.064,4.253-9.203,9.509-9.203c2.69,0.001,5.114,1.093,6.841,2.837c0.483-0.63,1.006-1.241,1.581-1.817
			C406.562,232.314,411.084,230.441,415.895,230.443z"/>
		<path fill="#FAA73F" d="M443.654,245.103l-0.005-1.217c0.003-5.083,4.122-9.201,9.21-9.204c5.104,0,9.229,4.14,9.229,9.204
			l-0.003,3.061v2.451h-28.198c-0.126,2.374-0.717,4.735-1.8,6.943c3.087,2.389,5.584,5.355,7.4,8.693
			c3.369-3.242,7.779-5.033,12.469-5.033c4.811,0,9.334,1.871,12.736,5.272c0.084,0.083,0.158,0.172,0.238,0.257h12.82v-16.132
			h-0.005v-2.46l0.005-3.049c0-9.464-5.299-17.694-13.088-21.893c3.664-5.803,2.967-13.567-2.09-18.624
			c-5.863-5.859-15.369-5.861-21.229,0c-5.275,5.283-5.798,13.505-1.579,19.373c-4.977,3.086-8.773,7.882-10.59,13.566
			c2.328,2.546,3.812,5.597,4.42,8.795L443.654,245.103z"/>
		<path fill="#EF4123" d="M428.086,257.208c4.219-5.868,3.696-14.091-1.578-19.374c-2.931-2.929-6.772-4.394-10.613-4.394
			c-0.68,0-1.356,0.062-2.029,0.154c-1.611,0.218-3.191,0.692-4.677,1.434c-1.409,0.704-2.735,1.631-3.911,2.806
			c-5.057,5.057-5.753,12.821-2.09,18.625c-7.789,4.2-13.086,12.429-13.086,21.894l0.003,3.049v2.372h-0.003v16.132h36.051
			c1.642-5.521,4.967-10.412,9.612-14.006c-0.341-0.693-0.621-1.406-0.866-2.126h-29.132l-0.001-2.363l-0.004-3.062
			c0-5.064,4.129-9.203,9.23-9.203c5.087,0.003,9.207,4.121,9.211,9.203l-0.005,1.219l9.811,0.001
			c-0.37-4.233,0.761-8.54,3.349-12.105C435.294,263.231,432.064,259.674,428.086,257.208z"/>
		<path fill="#4A8ECC" d="M477.752,307.91c0-9.465-5.299-17.694-13.088-21.894c3.664-5.803,2.967-13.567-2.09-18.625
			c-2.932-2.929-6.775-4.394-10.617-4.394s-7.682,1.465-10.612,4.394c-5.275,5.283-5.798,13.506-1.579,19.374
			c-7.071,4.384-11.776,12.212-11.776,21.145v1.217l15.665-0.003l-0.005-1.219c0.003-5.082,4.122-9.2,9.21-9.203
			c5.104,0,9.229,4.138,9.229,9.203l-0.003,3.062v2.42h-71.984v16.132h87.65v-16.132h-0.005v-2.429L477.752,307.91z"/>
	</g>
	<g>
		<path fill="#082C49" d="M365.345,369.554l6.28-7.418c0.924,1.154,1.83,2.01,2.721,2.572c0.891,0.561,1.812,0.84,2.769,0.84
			c1.22,0,2.151-0.363,2.794-1.087c0.644-0.727,0.965-1.797,0.965-3.215v-13.155h-11.77v-8.803h23.293v21.266
			c0,4.715-1.213,8.25-3.636,10.607s-5.976,3.535-10.657,3.535c-2.703,0-5.151-0.437-7.344-1.31
			C368.567,372.513,366.762,371.235,365.345,369.554z"/>
		<path fill="#082C49" d="M400.896,358.328v-19.04h11.671v18.693c0,2.538,0.454,4.385,1.36,5.538
			c0.906,1.154,2.217,1.731,3.932,1.731c1.714,0,3.024-0.577,3.932-1.731c0.906-1.153,1.359-3,1.359-5.538v-18.693h11.474v19.04
			c0,5.176-1.483,9.198-4.45,12.066c-2.968,2.867-7.105,4.302-12.414,4.302c-5.307,0-9.445-1.435-12.412-4.302
			C402.38,367.526,400.896,363.504,400.896,358.328z"/>
		<path fill="#082C49" d="M476.457,355.657v14.639c-2.045,1.417-4.42,2.505-7.122,3.264c-2.702,0.758-5.357,1.137-7.962,1.137
			c-3.693,0-7.006-0.766-9.94-2.299c-2.935-1.534-5.234-3.676-6.899-6.43c-1.664-2.753-2.497-5.877-2.497-9.371
			s0.833-6.618,2.497-9.372c1.665-2.752,3.989-4.896,6.973-6.428c2.984-1.534,6.355-2.301,10.113-2.301
			c3.397,0,6.438,0.569,9.125,1.706c2.687,1.138,4.921,2.795,6.701,4.971l-7.469,6.578c-2.174-2.539-4.764-3.81-7.764-3.81
			c-2.57,0-4.615,0.775-6.132,2.325s-2.274,3.66-2.274,6.33c0,2.604,0.75,4.699,2.25,6.28c1.5,1.584,3.503,2.374,6.009,2.374
			c1.481,0,2.901-0.28,4.253-0.84v-8.754H476.457z"/>
	</g>
</g>
</svg>
