<svg xmlns="http://www.w3.org/2000/svg" width="595" height="595" viewBox="0 0 595.3 595.3"><style>.a{fill:#F1BD30;}.b{fill:#E63329;}.c{fill:#6B9CD2;}</style><path d="M391 77.3c3.6 23.6-1.9 42-15.3 52.2 -7.6-7.5-15.2-15-23.2-22.9 3.9-4 6.7-8.8 6.7-15 0-8.5-3.8-14.3-11.3-17.8 -7.8-3.7-15.7-2.5-21.7 3.3 -8.9 8.7-30.1 29.7-30.1 29.7s-19.5-19.9-29.4-29.5c-9.5-9.2-25.5-6.4-31.4 5.3 -3.6 7.1-2 15.7 4.6 23.9 -7.8 7.3-15.6 14.7-23.6 22.3 -11.8-7.5-17.4-25.7-14.8-51.9 -10.5-2.5-19.1-8-24-18.2 -3.2-6.6-3.8-13.5-2.4-20.5 2.6-13.6 14.8-24.3 28.6-25.4 16.1-1.4 27.9 7.6 35 27.2 22.4-4.9 41.7 1 57.6 19.3 15.6-18 34.9-24.4 57.5-19.3 8.8-20.6 20.1-29.1 35.9-27.2 14.1 1.7 26.2 13.1 28.1 26.6C420.4 57 412.7 67.9 391 77.3z" class="a"/><path d="M136.3 198.5l-8.3-31c0 0 58.8-16.1 80.6-21.6 1.3-0.3 2-0.9 2.8-1.8 18.5-19.9 38.1-38.7 57.3-57.8 0.1-0.1 0.3-0.1 0.1 0 7.6 7.6 15.2 15.1 23 22.9 -0.2 1.4-34.9 35.9-51.4 51.5 -7.9 7.5-8.7 20.5-1.2 28.6 7.2 7.8 19.4 8 28.2 0.4 0.4-0.3 0.8-0.6 0.7-0.5 7.7 7.7 15.3 15.3 23.2 23.2 -7.1 8.2-17.1 13.4-28.7 15.5 -3.6 0.6-5.9 2-8.2 4.7 -7.6 9-17.1 15-29.1 17.6 -2.9-10.8-5.7-21.1-8.5-31.6 2.7-1.2 5.5-2 7.8-3.5 8.6-5.4 11.1-15.3 6.7-25.4 -3.7-8.4-13.3-12.6-23.1-10C185.8 185.4 136.3 198.5 136.3 198.5z" class="b"/><path d="M321.6 137c8.2 7.7 15.8 14.9 22.8 21.6 -16.4 16.4-32.6 32.6-48.3 48.3 -15.2-15.2-31.3-31.4-48-48.1 7.1-6.7 14.8-14.1 23.4-22.2 5.1 5.4 18.1 19.1 19.8 20.7 5.1 4.8 5.4 4.8 10.3-0.2C308.2 150.5 314.7 144 321.6 137z" class="c"/><path d="M202.6 514c-3.6-23.6 1.9-42 15.3-52.2 7.6 7.5 15.2 15 23.2 22.9 -3.9 4-6.7 8.8-6.7 15 0 8.5 3.8 14.3 11.3 17.8 7.8 3.7 15.7 2.5 21.7-3.3 9-8.7 30.1-29.7 30.1-29.7s19.5 19.9 29.4 29.5c9.5 9.2 25.5 6.4 31.4-5.3 3.6-7.1 2-15.7-4.6-23.9 7.8-7.3 15.6-14.7 23.6-22.3 11.8 7.5 17.4 25.7 14.8 51.9 10.5 2.5 19.1 8 24 18.2 3.2 6.6 3.8 13.5 2.4 20.5 -2.6 13.6-14.8 24.3-28.6 25.4 -16.1 1.4-27.9-7.6-35-27.2 -22.4 4.9-41.7-1-57.6-19.3 -15.6 18-34.9 24.4-57.5 19.3 -8.8 20.6-20.1 29.1-35.9 27.2 -14.1-1.7-26.2-13.1-28.1-26.6C173.2 534.3 180.9 523.4 202.6 514z" class="a"/><path d="M457.3 392.8l8.3 31c0 0-58.8 16.1-80.6 21.6 -1.3 0.3-2 1-2.8 1.8 -18.5 19.9-38.1 38.7-57.3 57.8 -0.1 0.1-0.3 0.1-0.1 0 -7.6-7.6-15.2-15.1-23-22.9 0.2-1.4 34.9-35.9 51.4-51.5 7.9-7.5 8.7-20.5 1.2-28.6 -7.2-7.8-19.4-8-28.2-0.4 -0.4 0.3-0.8 0.6-0.7 0.5 -7.7-7.7-15.3-15.3-23.2-23.2 7.1-8.2 17.1-13.4 28.7-15.5 3.6-0.6 5.9-2 8.2-4.7 7.6-9 17.1-15 29.1-17.6 2.9 10.8 5.7 21.1 8.5 31.6 -2.7 1.2-5.5 2-7.8 3.5 -8.6 5.4-11.1 15.3-6.7 25.4 3.7 8.4 13.3 12.6 23.1 10C407.8 405.9 457.3 392.8 457.3 392.8z" class="b"/><path d="M271.9 454.2c-8.2-7.7-15.8-14.9-22.8-21.6 16.4-16.4 32.6-32.6 48.3-48.3 15.2 15.2 31.3 31.4 48 48.1 -7.1 6.7-14.8 14.1-23.4 22.2 -5.1-5.4-18.1-19.1-19.8-20.7 -5.1-4.8-5.4-4.8-10.3 0.2C285.4 440.7 278.8 447.3 271.9 454.2z" class="c"/><path d="M154.8 104.9c22.2 8.6 35.4 22.7 37.5 39.4 -10.3 2.8-20.5 5.6-31.4 8.6 -1.5-5.4-4.3-10.2-9.7-13.3 -7.3-4.2-14.3-3.8-21.1 0.9 -7.1 5-10.1 12.4-8 20.4 3.1 12.1 10.7 40.9 10.7 40.9s-27 7-40.3 10.7c-12.7 3.6-18.2 18.9-11.1 29.8 4.4 6.7 12.6 9.5 23.1 8 2.5 10.4 5 20.8 7.5 31.6 -12.4 6.5-30.9 2.3-52.3-13.2 -7.5 7.9-16.5 12.5-27.8 11.7 -7.3-0.5-13.6-3.5-19-8.2C2.6 263.2-0.5 247.3 5.3 234.8c6.9-14.7 20.6-20.3 41-16.7 7-21.9 21.7-35.6 45.5-40.2 -7.8-22.5-3.7-42.4 12.1-59.4 -13.5-17.9-15.2-31.9-5.6-44.7 8.5-11.3 24.5-16.1 37.1-11.1C151.9 69.3 157.5 81.4 154.8 104.9z" class="a"/><path d="M132.4 386l-31-8.3c0 0 15.5-59 21.5-80.6 0.3-1.3 0.2-2.2-0.2-3.3 -8-26-14.5-52.3-21.4-78.6 0-0.1 0.1-0.3 0-0.1 10.4-2.8 20.7-5.6 31.3-8.4 1.1 0.9 13.6 48.2 18.9 70.2 2.5 10.6 13.4 17.8 24.2 15.3 10.4-2.4 16.6-12.8 14.4-24.3 -0.1-0.5-0.1-1-0.1-0.8 10.5-2.8 20.9-5.6 31.7-8.5 3.6 10.3 3.1 21.5-0.9 32.6 -1.2 3.4-1.2 6.1 0 9.5 4 11.1 4.4 22.3 0.7 34 -10.8-2.9-21.1-5.6-31.6-8.4 0.3-3 1-5.8 0.9-8.5 -0.4-10.1-7.7-17.3-18.7-18.5 -9.1-1-17.6 5.2-20.2 15C145.8 336.7 132.4 386 132.4 386z" class="b"/><path d="M171.9 194.8c10.8-3.2 20.8-6.2 30.1-9 6 22.4 11.9 44.5 17.7 66 -20.8 5.5-42.9 11.4-65.6 17.5 -2.3-9.5-4.8-19.9-7.5-31.4 7.2-1.7 25.6-6.2 27.8-6.8 6.7-2.1 6.8-2.3 5-9C176.8 213.2 174.4 204.2 171.9 194.8z" class="c"/><path d="M438.8 486.4c-22.2-8.6-35.4-22.7-37.5-39.4 10.3-2.8 20.5-5.6 31.4-8.6 1.5 5.4 4.3 10.2 9.7 13.3 7.3 4.2 14.3 3.8 21.1-0.9 7.1-4.9 10.1-12.4 8-20.4 -3.1-12.1-10.7-40.9-10.7-40.9s27-7 40.3-10.7c12.7-3.6 18.3-18.9 11.1-29.8 -4.4-6.7-12.6-9.5-23.1-8 -2.5-10.4-5-20.8-7.5-31.6 12.4-6.5 30.9-2.3 52.3 13.2 7.5-7.9 16.5-12.5 27.8-11.7 7.3 0.5 13.6 3.5 19 8.2 10.5 9.1 13.6 25 7.7 37.5 -6.9 14.7-20.6 20.3-41 16.7 -7 21.9-21.7 35.6-45.5 40.2 7.8 22.5 3.7 42.4-12.1 59.4 13.5 17.9 15.2 31.9 5.6 44.7 -8.5 11.3-24.5 16.1-37.1 11.1C441.7 522 436.1 509.9 438.8 486.4z" class="a"/><path d="M461.2 205.2l31 8.3c0 0-15.5 59-21.5 80.6 -0.3 1.3-0.2 2.2 0.2 3.3 8 26 14.5 52.3 21.4 78.6 0 0.1-0.1 0.3 0 0.1 -10.4 2.8-20.7 5.6-31.3 8.4 -1.1-0.9-13.6-48.2-18.9-70.2 -2.5-10.6-13.4-17.8-24.2-15.3 -10.4 2.4-16.6 12.8-14.4 24.3 0.1 0.5 0.1 1 0.1 0.8 -10.5 2.8-20.9 5.6-31.7 8.5 -3.6-10.3-3.1-21.5 0.9-32.6 1.2-3.4 1.2-6.1 0-9.5 -4-11.1-4.4-22.3-0.7-34 10.8 2.9 21.1 5.6 31.6 8.4 -0.3 3-1 5.8-0.9 8.5 0.4 10.1 7.7 17.3 18.7 18.5 9.1 1 17.6-5.2 20.2-15C447.8 254.6 461.2 205.2 461.2 205.2z" class="b"/><path d="M421.7 396.5c-10.8 3.2-20.8 6.2-30.1 9 -6-22.4-11.9-44.5-17.7-66 20.8-5.5 42.9-11.4 65.6-17.5 2.3 9.5 4.8 19.9 7.5 31.4 -7.2 1.7-25.6 6.2-27.8 6.8 -6.7 2.1-6.8 2.3-5 9C416.7 378.1 419.2 387 421.7 396.5z" class="c"/><path d="M60.6 323.2c18.6-14.9 37.4-19.3 52.9-12.8 -2.7 10.3-5.4 20.6-8.2 31.5 -5.4-1.4-11-1.4-16.4 1.7 -7.3 4.2-10.5 10.5-9.8 18.7 0.7 8.6 5.7 14.9 13.7 17.1 12 3.4 40.7 11.2 40.7 11.2s-7.4 26.9-10.8 40.3c-3.2 12.8 7.2 25.2 20.3 24.5 8-0.4 14.6-6.1 18.4-16 10.3 3.1 20.5 6.1 31.1 9.3 -0.6 14-13.5 27.9-37.6 38.7 3.1 10.4 2.6 20.5-3.7 29.9 -4.1 6.1-9.8 10-16.5 12.3 -13.1 4.5-28.4-0.7-36.3-12.1 -9.3-13.3-7.3-28 6.1-43.9 -15.5-17-20-36.6-12-59.5 -23.4-4.5-38.6-18-45.4-40.2 -22.3 2.7-35.2-2.8-41.5-17.5 -5.6-13-1.7-29.3 9-37.7C28.3 308 41.6 309.1 60.6 323.2z" class="a"/><path d="M292.9 483.2l-22.7 22.7c0 0-43.3-42.9-59-58.9 -0.9-0.9-1.8-1.2-3-1.5 -26.5-6.1-52.5-13.6-78.7-20.7 -0.1 0-0.3-0.2-0.1 0 2.8-10.4 5.5-20.7 8.4-31.4 1.3-0.5 48.6 12.3 70.3 18.8 10.5 3.1 22.1-2.7 25.3-13.3 3.1-10.2-2.7-20.8-13.8-24.6 -0.5-0.2-0.9-0.4-0.8-0.3 2.8-10.5 5.6-20.9 8.5-31.7 10.7 2 20.2 8.1 27.8 17.1 2.3 2.8 4.7 4.1 8.2 4.7 11.6 2.1 21.5 7.3 29.8 16.4 -7.9 7.9-15.4 15.5-23.1 23.2 -2.4-1.8-4.5-3.7-6.9-5 -8.9-4.7-18.8-1.9-25.4 6.9 -5.4 7.4-4.2 17.9 2.9 25C256.8 446.9 292.9 483.2 292.9 483.2z" class="b"/><path d="M147 353.4c2.6-11 5-21.1 7.3-30.5 22.4 6 44.5 11.9 66 17.7 -5.6 20.8-11.5 42.8-17.6 65.6 -9.3-2.8-19.6-5.8-30.9-9.2 2.1-7.1 7.5-25.2 8-27.5 1.6-6.8 1.4-7.1-5.3-8.9C165.4 358.3 156.5 355.9 147 353.4z" class="c"/><path d="M533 268.1c-18.6 14.9-37.4 19.3-52.9 12.8 2.7-10.3 5.4-20.6 8.2-31.5 5.4 1.4 11 1.4 16.4-1.7 7.3-4.2 10.5-10.5 9.8-18.7 -0.7-8.6-5.7-14.9-13.7-17.1 -12-3.4-40.7-11.2-40.7-11.2s7.4-26.9 10.8-40.3c3.2-12.8-7.2-25.2-20.3-24.5 -8 0.4-14.6 6.2-18.4 16 -10.3-3.1-20.5-6.1-31.1-9.3 0.6-14 13.5-27.9 37.6-38.7 -3.1-10.4-2.6-20.5 3.7-29.9 4.1-6.1 9.8-10 16.5-12.3 13.1-4.5 28.4 0.7 36.3 12.1 9.3 13.3 7.3 28-6.1 43.9 15.5 17 20 36.6 12 59.5 23.4 4.5 38.6 18 45.4 40.2 22.3-2.7 35.2 2.8 41.5 17.5 5.6 13 1.7 29.3-9 37.7C565.3 283.3 552 282.1 533 268.1z" class="a"/><path d="M300.7 108.1l22.7-22.7c0 0 43.3 42.9 59 58.9 0.9 0.9 1.8 1.2 3 1.5 26.5 6.1 52.6 13.6 78.7 20.7 0.1 0 0.3 0.2 0.1 0 -2.8 10.4-5.5 20.7-8.4 31.4 -1.3 0.5-48.6-12.3-70.3-18.8 -10.5-3.1-22.1 2.7-25.3 13.3 -3.1 10.2 2.7 20.8 13.8 24.6 0.5 0.2 0.9 0.4 0.8 0.3 -2.8 10.5-5.6 20.9-8.5 31.7 -10.7-2-20.2-8.1-27.7-17.1 -2.3-2.8-4.7-4.1-8.2-4.7 -11.6-2.1-21.5-7.3-29.8-16.4 7.9-7.9 15.4-15.5 23.1-23.2 2.4 1.8 4.5 3.7 6.9 5 8.9 4.7 18.8 1.9 25.4-6.9 5.4-7.4 4.3-17.9-2.9-25C336.8 144.4 300.7 108.1 300.7 108.1z" class="b"/><path d="M446.6 237.9c-2.6 11-5 21.1-7.3 30.5 -22.4-6-44.5-11.9-66-17.7 5.6-20.8 11.5-42.8 17.6-65.6 9.4 2.8 19.6 5.8 30.9 9.2 -2.1 7.1-7.5 25.2-8 27.5 -1.6 6.8-1.4 7.1 5.3 8.9C428.1 233 437.1 235.4 446.6 237.9z" class="c"/></svg>