<svg xmlns="http://www.w3.org/2000/svg" viewBox="0 0 409 49" version="1.1" xml:space="preserve" stroke-linejoin="round"><style>.s0{fill:#231f20;}</style><path d="M61.1 31.5l0-3.7c1.3 0.5 2.7 0.8 4.1 0.8 1.2 0 2-0.3 2.4-1 0.4-0.7 0.7-1.8 0.7-3.5l0-21.6 5.2 0 0 21.1c0 3-0.6 5.2-1.9 6.6 -1.2 1.3-3.3 2-6.1 2 -1.4 0-2.9-0.2-4.4-0.6ZM86.2 27.6c-2.9 0-5.1-0.9-6.8-2.6 -1.7-1.7-2.5-4.1-2.5-7 0-3 0.8-5.3 2.5-7 1.7-1.7 4-2.6 6.9-2.6 2.9 0 5.2 0.9 6.9 2.6 1.7 1.7 2.5 4 2.5 7 0 3-0.9 5.4-2.6 7.1 -1.7 1.7-4.1 2.6-7 2.6Zm0.1-3.1c2.8 0 4.3-2.2 4.3-6.5 0-2-0.4-3.6-1.1-4.7 -0.8-1.2-1.8-1.7-3.1-1.7 -1.3 0-2.3 0.6-3.1 1.7 -0.8 1.2-1.1 2.7-1.1 4.8 0 2 0.4 3.6 1.1 4.7 0.7 1.2 1.8 1.8 3.1 1.8ZM107.1 27.6c-2.9 0-5.1-0.9-6.8-2.6 -1.7-1.7-2.5-4.1-2.5-7 0-3 0.8-5.3 2.5-7 1.7-1.7 4-2.6 6.9-2.6 2.9 0 5.2 0.9 6.9 2.6 1.7 1.7 2.5 4 2.5 7 0 3-0.9 5.4-2.6 7.1 -1.7 1.7-4.1 2.6-7 2.6Zm0.1-3.1c2.8 0 4.3-2.2 4.3-6.5 0-2-0.4-3.6-1.1-4.7 -0.8-1.2-1.8-1.7-3.1-1.7 -1.3 0-2.3 0.6-3.1 1.7 -0.8 1.2-1.1 2.7-1.1 4.8 0 2 0.4 3.6 1.1 4.7 0.7 1.2 1.8 1.8 3.1 1.8ZM120.2 27.2l0-18.3 4.7 0 0 3.5c1.4-2.6 3.5-3.9 6.2-3.9 1.4 0 2.5 0.3 3.4 1 0.9 0.7 1.4 1.6 1.6 2.9 1.7-2.6 3.8-3.9 6.2-3.9 3.4 0 5 1.8 5 5.5l0 13.2 -4.7 0 0-11.6c0-2.2-0.7-3.3-2.2-3.3 -1.5 0-2.9 1.1-4.3 3.2l0 11.6 -4.7 0 0-11.6c0-2.2-0.7-3.3-2.2-3.3 -1.5 0-2.9 1.1-4.3 3.2l0 11.6 -4.7 0Z" fill="#231f20"/><rect x="152.3" y="0.8" width="4.9" height="26.4" fill="#231f20"/><path d="M171.4 25.2c-1.6 1.6-3.4 2.4-5.3 2.4 -1.6 0-2.9-0.5-3.9-1.5 -1-1-1.5-2.2-1.5-3.8 0-2 0.8-3.6 2.4-4.7 1.6-1.1 3.9-1.6 7-1.6l1.3 0 0-1.7c0-1.9-1.1-2.9-3.3-2.9 -1.9 0-3.9 0.5-5.8 1.6l0-3.4c2.2-0.8 4.5-1.3 6.6-1.3 4.8 0 7.2 1.9 7.2 5.7l0 8.1c0 1.4 0.5 2.2 1.4 2.2 0.2 0 0.4 0 0.7-0.1l0.1 2.8c-1 0.3-2 0.5-2.8 0.5 -2 0-3.3-0.8-3.9-2.4l-0.2 0Zm0-2.7l0-3.7 -1.2 0c-3.2 0-4.8 1-4.8 3 0 0.7 0.2 1.3 0.7 1.7 0.5 0.5 1 0.7 1.7 0.7 1.2 0 2.3-0.6 3.6-1.7ZM201.3 26.2c-2.4 1.1-5.2 1.6-8.6 1.6 -4.1 0-7.2-1.1-9.5-3.4 -2.3-2.3-3.4-5.5-3.4-9.6 0-4.2 1.1-7.4 3.4-9.6 2.3-2.2 5.5-3.4 9.7-3.4 2.7 0 5.4 0.3 8 1l0 4c-3-1.1-5.5-1.6-7.6-1.6 -2.6 0-4.6 0.8-6 2.5 -1.4 1.7-2.1 4-2.1 7 0 3 0.8 5.3 2.3 7 1.5 1.7 3.6 2.5 6.3 2.5 2.4 0 4.9-0.6 7.3-1.8l0 3.8ZM212.5 27.6c-2.9 0-5.1-0.9-6.8-2.6 -1.7-1.7-2.5-4.1-2.5-7 0-3 0.8-5.3 2.5-7 1.7-1.7 4-2.6 6.9-2.6 2.9 0 5.2 0.9 6.9 2.6 1.7 1.7 2.5 4 2.5 7 0 3-0.9 5.4-2.6 7.1 -1.7 1.7-4.1 2.6-7 2.6Zm0.1-3.1c2.8 0 4.3-2.2 4.3-6.5 0-2-0.4-3.6-1.1-4.7 -0.8-1.2-1.8-1.7-3.1-1.7 -1.3 0-2.3 0.6-3.1 1.7 -0.8 1.2-1.1 2.7-1.1 4.8 0 2 0.4 3.6 1.1 4.7 0.7 1.2 1.8 1.8 3.1 1.8ZM225.6 27.2l0-18.3 4.7 0 0 3.5c1.4-2.6 3.5-3.9 6.2-3.9 1.4 0 2.5 0.3 3.4 1 0.9 0.7 1.4 1.6 1.6 2.9 1.7-2.6 3.8-3.9 6.2-3.9 3.4 0 5 1.8 5 5.5l0 13.2 -4.7 0 0-11.6c0-2.2-0.7-3.3-2.2-3.3 -1.5 0-2.9 1.1-4.3 3.2l0 11.6 -4.7 0 0-11.6c0-2.2-0.7-3.3-2.2-3.3 -1.5 0-2.9 1.1-4.3 3.2l0 11.6 -4.7 0ZM257.7 27.2l0-18.3 4.7 0 0 3.5c1.4-2.6 3.5-3.9 6.2-3.9 1.4 0 2.5 0.3 3.4 1 0.9 0.7 1.4 1.6 1.6 2.9 1.7-2.6 3.8-3.9 6.2-3.9 3.4 0 5 1.8 5 5.5l0 13.2 -4.7 0 0-11.6c0-2.2-0.7-3.3-2.2-3.3 -1.5 0-2.9 1.1-4.3 3.2l0 11.6 -4.7 0 0-11.6c0-2.2-0.7-3.3-2.2-3.3 -1.5 0-2.9 1.1-4.3 3.2l0 11.6 -4.7 0ZM301.2 27.2l0-3.5c-1.6 2.6-3.7 3.9-6.2 3.9 -1.6 0-2.9-0.5-3.9-1.6 -0.9-1-1.4-2.4-1.4-4.2l0-13 4.9 0 0 11.7c0 2.1 0.7 3.1 2.1 3.1 1.6 0 3.1-1.1 4.5-3.3l0-11.5 4.9 0 0 18.3 -4.9 0ZM311.2 27.2l0-18.3 4.9 0 0 3.5c1.6-2.6 3.7-3.9 6.2-3.9 1.6 0 2.9 0.5 3.9 1.6 0.9 1 1.4 2.5 1.4 4.2l0 13 -4.9 0 0-11.7c0-2.1-0.7-3.1-2.1-3.1 -1.6 0-3.1 1.1-4.5 3.3l0 11.5 -4.9 0ZM332.7 27.2l0-18.3 4.9 0 0 18.3 -4.9 0Zm0-21.4l0-4.1 4.9 0 0 4.1 -4.9 0ZM352.2 27.1c-1.2 0.3-2.1 0.5-2.8 0.5 -4.3 0-6.4-2-6.4-6l0-9.7 -2.1 0 0-3.1 2.1 0 0-3.1 4.9-0.6 0 3.7 3.9 0 0 3.1 -3.9 0 0 9c0 2.2 0.9 3.4 2.8 3.4 0.4 0 0.9-0.1 1.5-0.2l0 3ZM355.6 33.8l4.2-6.6 -6.8-18.3 5.3 0 4.5 12.3 5.4-12.3 3.8 0 -11.3 24.9 -5 0Z" fill="#231f20"/><rect x="372.9" y="21.8" width="5.4" height="5.4" fill="#231f20"/><path d="M381.9 27.2l0-18.3 4.9 0 0 3.5c1.6-2.6 3.7-3.9 6.2-3.9 1.6 0 2.9 0.5 3.9 1.6 0.9 1 1.4 2.5 1.4 4.2l0 13 -4.9 0 0-11.7c0-2.1-0.7-3.1-2.1-3.1 -1.6 0-3.1 1.1-4.5 3.3l0 11.5 -4.9 0Z" fill="#231f20"/><rect x="403.3" y="0.8" width="4.9" height="26.4" fill="#231f20"/><path d="M73.4 45.1l0-12.8 1.6 0 0 5.7c0.8-1.2 1.9-1.9 3.1-1.9 0.8 0 1.4 0.2 1.8 0.7 0.5 0.5 0.7 1.1 0.7 2l0 6.3 -1.6 0 0-5.8c0-0.7-0.1-1.1-0.3-1.4 -0.2-0.3-0.5-0.4-1-0.4 -1 0-1.9 0.6-2.8 1.9l0 5.7 -1.6 0ZM89.8 44.8c-1.1 0.3-2 0.5-2.8 0.5 -1.3 0-2.4-0.4-3.2-1.3 -0.8-0.9-1.2-2-1.2-3.4 0-1.3 0.4-2.4 1.1-3.3 0.7-0.9 1.7-1.3 2.8-1.3 1.1 0 1.9 0.4 2.5 1.1 0.6 0.8 0.9 1.8 0.9 3.2l0 0.5 -5.6 0c0.2 2.1 1.3 3.1 3.1 3.1 0.7 0 1.5-0.2 2.5-0.5l0 1.3Zm-5.5-5.1l3.9 0c0-1.6-0.6-2.5-1.8-2.5 -1.2 0-1.9 0.8-2.1 2.5ZM94.9 45.3c-0.8 0-1.4-0.2-1.9-0.7 -0.5-0.5-0.7-1.1-0.7-1.9l0-5.2 -1.1 0 0-1.2 1.1 0 0-1.6 1.6-0.2 0 1.8 2.3 0 0 1.2 -2.3 0 0 4.9c0 1.2 0.5 1.7 1.5 1.7 0.2 0 0.5 0 0.8-0.1l0 1.1c-0.5 0.1-0.9 0.2-1.3 0.2ZM103.1 45.1l0-12 1.7 0 6.1 9.3 0-9.3 1.5 0 0 12 -1.7 0 -6.1-9.3 0 9.3 -1.5 0ZM121.6 44.8c-1.1 0.3-2 0.5-2.8 0.5 -1.3 0-2.4-0.4-3.2-1.3 -0.8-0.9-1.2-2-1.2-3.4 0-1.3 0.4-2.4 1.1-3.3 0.7-0.9 1.7-1.3 2.8-1.3 1.1 0 1.9 0.4 2.5 1.1 0.6 0.8 0.9 1.8 0.9 3.2l0 0.5 -5.6 0c0.2 2.1 1.3 3.1 3.1 3.1 0.7 0 1.5-0.2 2.5-0.5l0 1.3Zm-5.5-5.1l3.9 0c0-1.6-0.6-2.5-1.8-2.5 -1.2 0-1.9 0.8-2.1 2.5ZM129.7 45.1l0-1.7c-0.7 1.2-1.6 1.9-2.9 1.9 -1.1 0-1.9-0.4-2.5-1.2 -0.6-0.8-0.9-1.8-0.9-3.2 0-1.5 0.3-2.7 1-3.5 0.7-0.9 1.6-1.3 2.7-1.3 1 0 1.9 0.4 2.6 1.2l0-5 1.6 0 0 12.8 -1.6 0Zm0-6.7c-0.8-0.7-1.6-1.1-2.4-1.1 -1.5 0-2.3 1.2-2.3 3.5 0 2.1 0.7 3.1 2.1 3.1 0.9 0 1.8-0.5 2.6-1.5l0-4.1ZM140.6 44.8c-1.1 0.3-2 0.5-2.8 0.5 -1.3 0-2.4-0.4-3.2-1.3 -0.8-0.9-1.2-2-1.2-3.4 0-1.3 0.4-2.4 1.1-3.3 0.7-0.9 1.7-1.3 2.8-1.3 1.1 0 1.9 0.4 2.5 1.1 0.6 0.8 0.9 1.8 0.9 3.2l0 0.5 -5.6 0c0.2 2.1 1.3 3.1 3.1 3.1 0.7 0 1.5-0.2 2.5-0.5l0 1.3Zm-5.5-5.1l3.9 0c0-1.6-0.6-2.5-1.8-2.5 -1.2 0-1.9 0.8-2.1 2.5ZM143.1 45.1l0-8.8 1.6 0 0 1.7c0.6-1.2 1.6-1.9 2.8-1.9 0.2 0 0.3 0 0.5 0l0 1.5c-0.3-0.1-0.5-0.1-0.7-0.1 -1 0-1.9 0.6-2.5 1.8l0 5.8 -1.6 0Z" fill="#231f20"/><rect x="149.5" y="32.2" width="1.6" height="12.8" fill="#231f20"/><path d="M158.5 43.9c-1 0.9-1.9 1.3-2.8 1.3 -0.7 0-1.3-0.2-1.8-0.7 -0.5-0.5-0.7-1-0.7-1.7 0-1 0.4-1.7 1.2-2.2 0.8-0.5 2-0.8 3.5-0.8l0.4 0 0-1.1c0-1-0.5-1.5-1.6-1.5 -0.8 0-1.8 0.3-2.7 0.8l0-1.3c1.1-0.4 2.1-0.7 3-0.7 1 0 1.7 0.2 2.2 0.7 0.5 0.4 0.7 1.1 0.7 2.1l0 4c0 0.9 0.3 1.4 0.8 1.4 0.1 0 0.2 0 0.3 0l0.1 0.9c-0.4 0.2-0.8 0.3-1.2 0.3 -0.7 0-1.2-0.4-1.4-1.3Zm-0.2-0.9l0-2.3 -0.5 0c-0.9 0-1.6 0.2-2.1 0.5 -0.5 0.3-0.8 0.8-0.8 1.3 0 0.4 0.1 0.7 0.4 1 0.3 0.3 0.6 0.4 1 0.4 0.7 0 1.4-0.3 2.1-0.9ZM162.8 45.1l0-8.8 1.6 0 0 1.7c0.8-1.2 1.9-1.9 3.1-1.9 0.8 0 1.4 0.2 1.8 0.7 0.5 0.5 0.7 1.1 0.7 2l0 6.3 -1.6 0 0-5.8c0-0.7-0.1-1.1-0.3-1.4 -0.2-0.3-0.5-0.4-1-0.4 -1 0-1.9 0.6-2.8 1.9l0 5.7 -1.6 0ZM178.4 45.1l0-1.7c-0.6 1.2-1.6 1.9-2.9 1.9 -1.1 0-1.9-0.4-2.5-1.2 -0.6-0.8-0.9-1.8-0.9-3.2 0-1.5 0.3-2.7 1-3.5 0.7-0.9 1.6-1.3 2.7-1.3 1 0 1.9 0.4 2.6 1.2l0-5 1.6 0 0 12.8 -1.6 0Zm0-6.7c-0.8-0.7-1.6-1.1-2.4-1.1 -1.5 0-2.3 1.2-2.3 3.5 0 2.1 0.7 3.1 2.1 3.1 0.9 0 1.8-0.5 2.6-1.5l0-4.1ZM185.2 45.3c-0.7 0-1.6-0.2-2.7-0.5l0-1.5c1 0.5 2 0.8 2.7 0.8 0.5 0 0.8-0.1 1.1-0.4 0.3-0.2 0.5-0.6 0.5-0.9 0-0.5-0.4-1-1.3-1.4l-0.9-0.4c-1.4-0.6-2.1-1.4-2.1-2.5 0-0.8 0.3-1.4 0.8-1.8 0.5-0.4 1.3-0.7 2.2-0.7 0.5 0 1.1 0.1 1.8 0.2l0.3 0.1 0 1.3c-0.9-0.3-1.6-0.4-2.1-0.4 -1 0-1.5 0.4-1.5 1.1 0 0.5 0.4 0.9 1.2 1.2l0.8 0.3c0.9 0.4 1.5 0.8 1.9 1.2 0.4 0.4 0.5 0.9 0.5 1.5 0 0.8-0.3 1.4-0.9 1.9 -0.6 0.5-1.4 0.7-2.4 0.7ZM193.6 45.3c-0.8 0-1.4-0.2-1.9-0.7 -0.5-0.5-0.7-1.1-0.7-1.9l0-5.2 -1.1 0 0-1.2 1.1 0 0-1.6 1.6-0.2 0 1.8 2.3 0 0 1.2 -2.3 0 0 4.9c0 1.2 0.5 1.7 1.5 1.7 0.2 0 0.5 0 0.8-0.1l0 1.1c-0.5 0.1-0.9 0.2-1.3 0.2ZM201.4 43.9c-1 0.9-1.9 1.3-2.8 1.3 -0.7 0-1.3-0.2-1.8-0.7 -0.5-0.5-0.7-1-0.7-1.7 0-1 0.4-1.7 1.2-2.2 0.8-0.5 2-0.8 3.5-0.8l0.4 0 0-1.1c0-1-0.5-1.5-1.6-1.5 -0.8 0-1.8 0.3-2.7 0.8l0-1.3c1.1-0.4 2.1-0.7 3-0.7 1 0 1.7 0.2 2.2 0.7 0.5 0.4 0.7 1.1 0.7 2.1l0 4c0 0.9 0.3 1.4 0.8 1.4 0.1 0 0.2 0 0.3 0l0.1 0.9c-0.4 0.2-0.8 0.3-1.2 0.3 -0.7 0-1.2-0.4-1.4-1.3Zm-0.2-0.9l0-2.3 -0.5 0c-0.9 0-1.6 0.2-2.1 0.5 -0.5 0.3-0.8 0.8-0.8 1.3 0 0.4 0.1 0.7 0.4 1 0.3 0.3 0.6 0.4 1 0.4 0.7 0 1.4-0.3 2.1-0.9Z" fill="#231f20"/><rect x="205.6" y="32.2" width="1.6" height="12.8" fill="#231f20"/><path d="M210.1 45.1l0-8.8 1.6 0 0 8.8 -1.6 0Zm0-10.4l0-1.6 1.6 0 0 1.6 -1.6 0ZM214.6 48l0.2-1.4c0.9 0.4 1.8 0.7 2.7 0.7 1.8 0 2.7-1 2.7-2.9l0-1.4c-0.6 1.2-1.6 1.9-2.9 1.9 -1.1 0-1.9-0.4-2.5-1.2 -0.6-0.8-0.9-1.8-0.9-3.1 0-1.3 0.4-2.4 1.1-3.3 0.7-0.8 1.6-1.3 2.8-1.3 1 0 1.8 0.4 2.5 1.2l0-1 1.6 0 0 6.4c0 1.4-0.1 2.4-0.2 3.1 -0.1 0.7-0.4 1.2-0.8 1.6 -0.7 0.7-1.8 1.1-3.3 1.1 -1 0-2-0.2-3-0.5Zm5.6-6l0-3.7c-0.7-0.7-1.5-1.1-2.3-1.1 -0.7 0-1.3 0.3-1.7 0.9 -0.4 0.6-0.6 1.4-0.6 2.4 0 1.9 0.7 2.9 2 2.9 0.9 0 1.8-0.5 2.6-1.5ZM231 44.8c-1.1 0.3-2 0.5-2.8 0.5 -1.3 0-2.4-0.4-3.2-1.3 -0.8-0.9-1.2-2-1.2-3.4 0-1.3 0.4-2.4 1.1-3.3 0.7-0.9 1.7-1.3 2.8-1.3 1.1 0 1.9 0.4 2.5 1.1 0.6 0.8 0.9 1.8 0.9 3.2l0 0.5 -5.6 0c0.2 2.1 1.3 3.1 3.1 3.1 0.7 0 1.5-0.2 2.5-0.5l0 1.3Zm-5.5-5.1l3.9 0c0-1.6-0.6-2.5-1.8-2.5 -1.2 0-1.9 0.8-2.1 2.5ZM236.6 47.3l0-1.5c0.7 0.2 1.2 0.3 1.7 0.3 0.7 0 1.1-0.2 1.4-0.6 0.3-0.4 0.4-1 0.4-1.9l0-10.6 1.7 0 0 10.5c0 2.6-1.2 3.9-3.7 3.9 -0.4 0-0.9-0.1-1.5-0.2ZM248 45.3c-1.3 0-2.3-0.4-3-1.3 -0.8-0.8-1.1-2-1.1-3.4 0-1.4 0.4-2.5 1.1-3.4 0.8-0.8 1.8-1.2 3.1-1.2 1.3 0 2.3 0.4 3.1 1.2 0.8 0.8 1.1 1.9 1.1 3.4 0 1.4-0.4 2.6-1.1 3.4 -0.8 0.8-1.8 1.2-3.1 1.2Zm0-1.2c1.7 0 2.5-1.1 2.5-3.4 0-2.3-0.8-3.4-2.5-3.4 -1.7 0-2.5 1.1-2.5 3.4 0 2.3 0.8 3.4 2.5 3.4ZM257.8 45.3c-1.3 0-2.3-0.4-3-1.3 -0.8-0.8-1.1-2-1.1-3.4 0-1.4 0.4-2.5 1.1-3.4 0.8-0.8 1.8-1.2 3.1-1.2 1.3 0 2.3 0.4 3.1 1.2 0.8 0.8 1.1 1.9 1.1 3.4 0 1.4-0.4 2.6-1.1 3.4 -0.8 0.8-1.8 1.2-3.1 1.2Zm0-1.2c1.7 0 2.5-1.1 2.5-3.4 0-2.3-0.8-3.4-2.5-3.4 -1.7 0-2.5 1.1-2.5 3.4 0 2.3 0.8 3.4 2.5 3.4ZM264.2 45.1l0-8.8 1.6 0 0 1.7c0.8-1.2 1.8-1.9 3-1.9 1.2 0 2 0.6 2.4 1.9 0.8-1.2 1.7-1.9 3-1.9 0.8 0 1.4 0.2 1.8 0.7 0.4 0.5 0.6 1.1 0.6 1.9l0 6.4 -1.6 0 0-6.2c0-1-0.4-1.5-1.2-1.5 -0.8 0-1.7 0.6-2.6 1.8l0 5.9 -1.6 0 0-6.2c0-1-0.4-1.5-1.2-1.5 -0.8 0-1.7 0.6-2.6 1.8l0 5.9 -1.6 0Z" fill="#231f20"/><rect x="279.4" y="32.2" width="1.6" height="12.8" fill="#231f20"/><path d="M288.4 43.9c-1 0.9-1.9 1.3-2.8 1.3 -0.7 0-1.3-0.2-1.8-0.7 -0.5-0.5-0.7-1-0.7-1.7 0-1 0.4-1.7 1.2-2.2 0.8-0.5 2-0.8 3.5-0.8l0.4 0 0-1.1c0-1-0.5-1.5-1.6-1.5 -0.8 0-1.8 0.3-2.7 0.8l0-1.3c1.1-0.4 2.1-0.7 3-0.7 1 0 1.7 0.2 2.2 0.7 0.5 0.4 0.7 1.1 0.7 2.1l0 4c0 0.9 0.3 1.4 0.8 1.4 0.1 0 0.2 0 0.3 0l0.1 0.9c-0.4 0.2-0.8 0.3-1.2 0.3 -0.7 0-1.2-0.4-1.4-1.3Zm-0.2-0.9l0-2.3 -0.5 0c-0.9 0-1.6 0.2-2.1 0.5 -0.5 0.3-0.8 0.8-0.8 1.3 0 0.4 0.1 0.7 0.4 1 0.3 0.3 0.6 0.4 1 0.4 0.7 0 1.4-0.3 2.1-0.9ZM292.9 45.1l0-1.6 1.6 0 0 1.6 -1.6 0Zm0.2-3.2l-0.2-6.4 0-2.4 1.6 0 0 2.4 -0.2 6.4 -1.2 0Z" fill="#231f20"/><rect x="297.2" y="39.6" width="7.2" height="1.2" fill="#231f20"/><path d="M306.9 48.3l0-12 1.6 0 0 1.7c0.7-1.2 1.6-1.9 3-1.9 1.1 0 1.9 0.4 2.5 1.2 0.6 0.8 0.9 1.8 0.9 3.2 0 1.5-0.3 2.6-1 3.5 -0.7 0.9-1.6 1.3-2.7 1.3 -1 0-1.9-0.4-2.6-1.2l0 4.2 -1.6 0Zm1.6-5.3c0.8 0.7 1.6 1.1 2.4 1.1 1.5 0 2.3-1.2 2.3-3.5 0-2.1-0.7-3.1-2-3.1 -0.9 0-1.8 0.5-2.6 1.5l0 4.1ZM320.4 45.3c-1.3 0-2.3-0.4-3-1.3 -0.8-0.8-1.1-2-1.1-3.4 0-1.4 0.4-2.5 1.1-3.4 0.8-0.8 1.8-1.2 3.1-1.2 1.3 0 2.3 0.4 3.1 1.2 0.8 0.8 1.1 1.9 1.1 3.4 0 1.4-0.4 2.6-1.1 3.4 -0.8 0.8-1.8 1.2-3.1 1.2Zm0-1.2c1.7 0 2.5-1.1 2.5-3.4 0-2.3-0.8-3.4-2.5-3.4 -1.7 0-2.5 1.1-2.5 3.4 0 2.3 0.8 3.4 2.5 3.4ZM326.8 45.1l0-8.8 1.6 0 0 1.7c0.6-1.2 1.6-1.9 2.8-1.9 0.2 0 0.3 0 0.5 0l0 1.5c-0.3-0.1-0.5-0.1-0.7-0.1 -1 0-1.9 0.6-2.5 1.8l0 5.8 -1.6 0ZM335.9 45.3c-0.8 0-1.4-0.2-1.9-0.7 -0.5-0.5-0.7-1.1-0.7-1.9l0-5.2 -1.1 0 0-1.2 1.1 0 0-1.6 1.6-0.2 0 1.8 2.3 0 0 1.2 -2.3 0 0 4.9c0 1.2 0.5 1.7 1.5 1.7 0.2 0 0.5 0 0.8-0.1l0 1.1c-0.5 0.1-0.9 0.2-1.3 0.2ZM343.7 43.9c-1 0.9-1.9 1.3-2.8 1.3 -0.7 0-1.3-0.2-1.8-0.7 -0.5-0.5-0.7-1-0.7-1.7 0-1 0.4-1.7 1.2-2.2 0.8-0.5 2-0.8 3.5-0.8l0.4 0 0-1.1c0-1-0.5-1.5-1.6-1.5 -0.8 0-1.8 0.3-2.7 0.8l0-1.3c1.1-0.4 2.1-0.7 3-0.7 1 0 1.7 0.2 2.2 0.7 0.5 0.4 0.7 1.1 0.7 2.1l0 4c0 0.9 0.3 1.4 0.8 1.4 0.1 0 0.2 0 0.3 0l0.1 0.9c-0.4 0.2-0.8 0.3-1.2 0.3 -0.7 0-1.2-0.4-1.4-1.3Zm-0.2-0.9l0-2.3 -0.5 0c-0.9 0-1.6 0.2-2.1 0.5 -0.5 0.3-0.8 0.8-0.8 1.3 0 0.4 0.1 0.7 0.4 1 0.3 0.3 0.6 0.4 1 0.4 0.7 0 1.4-0.3 2.1-0.9Z" fill="#231f20"/><rect x="347.9" y="32.2" width="1.6" height="12.8" fill="#231f20"/><path d="M12.1 31.4c-0.8-1.3-1.4-2.5-2-3.8l-1.1-2.9c-2 10.2 0.2 21.7 7.6 22.4l0 0 18.4 0c2.4 0 5.4-1.7 6.6-3.8l0.4-0.6c-5.3 9.2-23.4-0.4-29.9-11.3" fill="#70b3dd"/><path d="M12.2 15.5c1-1.8 2.1-3.4 3.3-4.9l0.9-1.1c-9.8 3.4-18.7 11-15.6 17.8l0 0 9.2 15.9c1.2 2.1 4.2 3.8 6.6 3.8l0.7 0c-10.6 0-11.3-20.5-5.2-31.5" fill="#9c99bf"/><path d="M33.3 8.4c-8.1-7-19.5-10.9-23.6-4l-8.8 15.3c-1.2 2.1-1.2 5.5 0 7.6l0.4 0.6c-5.3-9.2 12.1-20 24.7-20.3 1.5 0 3 0 4.4 0.2l2.9 0.5Z" fill="#e8675f"/><path d="M34.4 0l-17.7 0c-2.4 0-5.4 1.7-6.6 3.8l-0.4 0.6c5.3-9.2 23.4 0.4 29.9 11.3 0.8 1.3 1.4 2.6 2 3.9l1.1 2.8c2-10.5-0.3-22.4-8.3-22.4" fill="#f78f22"/><path d="M50.5 19.1l-8.8-15.3c-1.2-2.1-4.2-3.8-6.6-3.8l-0.7 0c10.6 0 11.3 20.5 5.2 31.5 -0.7 1.3-1.5 2.5-2.3 3.6l-2 2.4c10.2-3.5 19.3-11.5 15.2-18.5" fill="#a3bf58"/><path d="M18.4 38.6c2.3 0.5 4.8 0.8 7.4 0.7 12.6-0.2 30-11.1 24.7-20.3l0.4 0.6c1.2 2.1 1.2 5.5 0 7.6l-8.8 15.3c-4 7-15.5 3.1-23.6-4" fill="#76cac2"/></svg>