<svg xmlns="http://www.w3.org/2000/svg" viewBox="0 0 242 220" version="1.1" xml:space="preserve" stroke-linejoin="round"><path d="M56.5 146.1c-3.5-5.8-6.6-11.7-9.2-17.7l-5.1-13.6c-9.2 47.6 0.7 101 35.5 104.3l0.1 0.2 85.5 0c11.3 0 25.2-8 30.9-17.8l1.7-3c-24.7 42.7-109-2.1-139.4-52.5" fill="#70b3dd"/><path d="M57 72.4c4.6-8.4 9.8-16 15.6-22.9l4.4-5c-45.8 15.8-87.1 51.1-72.6 82.9l-0.1 0.1 42.8 74.1c5.7 9.8 19.5 17.8 30.9 17.8l3.4 0c-49.4 0-52.7-95.4-24.3-147" fill="#9c99bf"/><path d="M155.3 39.3c-37.7-32.7-90.9-50.9-109.8-18.8l-41.2 71.4c-5.7 9.8-5.7 25.8 0 35.6l1.7 3c-24.7-42.7 56.3-93.3 115.1-94.5 7.1-0.1 14 0.2 20.6 1l13.5 2.3Z" fill="#e8675f"/><path d="M160.1 0l-82.3 0c-11.3 0-25.2 8-30.9 17.8l-1.7 3c24.7-42.7 109 2.1 139.4 52.5 3.6 6 6.7 12 9.3 18.1l4.9 13.2c9.5-49.1-1.4-104.3-38.8-104.5" fill="#eeb023"/><path d="M235.3 88.9l-41.1-71.1c-5.7-9.8-19.5-17.8-30.9-17.8l-3.4 0c49.4 0 52.7 95.4 24.3 147 -3.3 6-6.9 11.6-10.8 16.8l-9.2 11.1c47.3-16.3 89.8-53.4 71-86" fill="#a3bf58"/><path d="M85.9 180c10.9 2.5 22.3 3.6 34.2 3.4 58.9-1.1 139.8-51.7 115.1-94.5l1.7 3c5.7 9.8 5.7 25.8 0 35.6l-41.1 71.1c-18.8 32.5-72.2 14.2-110-18.6" fill="#76cac2"/></svg>